<svg xmlns="http://www.w3.org/2000/svg" width="1280" height="720" viewBox="0 0 1280 720" fill="none">
  <defs>
    <linearGradient id="bg" x1="140" y1="72" x2="1116" y2="652" gradientUnits="userSpaceOnUse">
      <stop stop-color="#F8FBFF"/>
      <stop offset="1" stop-color="#EEF4F8"/>
    </linearGradient>
    <linearGradient id="dock" x1="885" y1="48" x2="1236" y2="672" gradientUnits="userSpaceOnUse">
      <stop stop-color="#FFFFFF"/>
      <stop offset="1" stop-color="#F7FAFC"/>
    </linearGradient>
    <filter id="shadow" x="50" y="12" width="1180" height="696" filterUnits="userSpaceOnUse" color-interpolation-filters="sRGB">
      <feFlood flood-opacity="0" result="BackgroundImageFix"/>
      <feColorMatrix in="SourceAlpha" type="matrix" values="0 0 0 0 0 0 0 0 0 0 0 0 0 0 0 0 0 0 127 0" result="hardAlpha"/>
      <feOffset dy="16"/>
      <feGaussianBlur stdDeviation="24"/>
      <feColorMatrix type="matrix" values="0 0 0 0 0.0588235 0 0 0 0 0.0941176 0 0 0 0 0.164706 0 0 0 0.12 0"/>
      <feBlend mode="normal" in2="BackgroundImageFix" result="effect1_dropShadow_0_1"/>
      <feBlend mode="normal" in="SourceGraphic" in2="effect1_dropShadow_0_1" result="shape"/>
    </filter>
  </defs>

  <rect width="1280" height="720" fill="#E9F1F7"/>
  <rect x="92" y="48" width="1096" height="624" rx="28" fill="url(#bg)" filter="url(#shadow)"/>

  <rect x="124" y="88" width="720" height="544" rx="22" fill="#E9F0F6" stroke="#D6E1EA"/>
  <circle cx="220" cy="188" r="72" fill="#FFFFFF" stroke="#D4DEE8" stroke-width="2"/>
  <circle cx="438" cy="166" r="58" fill="#FFFFFF" stroke="#D4DEE8" stroke-width="2"/>
  <circle cx="602" cy="308" r="66" fill="#FFFFFF" stroke="#D4DEE8" stroke-width="2"/>
  <circle cx="314" cy="372" r="64" fill="#FFFFFF" stroke="#D4DEE8" stroke-width="2"/>
  <rect x="472" y="452" width="188" height="108" rx="18" fill="#FFFFFF" stroke="#D4DEE8" stroke-width="2"/>
  <path d="M278 214L380 198" stroke="#BCD2E6" stroke-width="5" stroke-linecap="round"/>
  <path d="M486 188L564 274" stroke="#BCD2E6" stroke-width="5" stroke-linecap="round"/>
  <path d="M280 344L532 468" stroke="#BCD2E6" stroke-width="5" stroke-linecap="round"/>

  <rect x="860" y="48" width="328" height="624" rx="28" fill="url(#dock)"/>
  <rect x="860" y="48" width="328" height="624" rx="28" stroke="#D6E1EA"/>

  <text x="892" y="96" fill="#2563EB" font-family="ui-sans-serif, system-ui, sans-serif" font-size="14" font-weight="700" letter-spacing="0.12em">REVIEW DOCK</text>
  <text x="892" y="126" fill="#0F172A" font-family="ui-sans-serif, system-ui, sans-serif" font-size="24" font-weight="700">Whiteboard RefDock</text>
  <text x="892" y="154" fill="#64748B" font-family="ui-sans-serif, system-ui, sans-serif" font-size="14">Saved reference triage for whiteboard workflows</text>

  <rect x="892" y="186" width="122" height="42" rx="14" fill="#DBEAFE"/>
  <text x="928" y="212" fill="#1D4ED8" font-family="ui-sans-serif, system-ui, sans-serif" font-size="15" font-weight="700">Linked</text>
  <rect x="1024" y="186" width="134" height="42" rx="14" fill="#ECFDF5"/>
  <text x="1052" y="212" fill="#047857" font-family="ui-sans-serif, system-ui, sans-serif" font-size="15" font-weight="700">Unlinked</text>

  <rect x="892" y="250" width="264" height="116" rx="18" fill="#FFFFFF" stroke="#D8E2EC"/>
  <rect x="910" y="270" width="10" height="76" rx="999" fill="#2563EB"/>
  <text x="938" y="286" fill="#0F172A" font-family="ui-sans-serif, system-ui, sans-serif" font-size="18" font-weight="700">Drag cards into the board</text>
  <rect x="938" y="300" width="92" height="26" rx="999" fill="#DBEAFE"/>
  <text x="961" y="317" fill="#1D4ED8" font-family="ui-sans-serif, system-ui, sans-serif" font-size="12" font-weight="700">linked</text>
  <rect x="1038" y="300" width="82" height="26" rx="999" fill="#EEF2FF"/>
  <text x="1058" y="317" fill="#4338CA" font-family="ui-sans-serif, system-ui, sans-serif" font-size="12" font-weight="700">block</text>
  <text x="938" y="344" fill="#64748B" font-family="ui-sans-serif, system-ui, sans-serif" font-size="14">Review, mark status, then drop directly into the native whiteboard.</text>

  <rect x="892" y="384" width="264" height="116" rx="18" fill="#FFFFFF" stroke="#D8E2EC"/>
  <rect x="910" y="404" width="10" height="76" rx="999" fill="#10B981"/>
  <text x="938" y="420" fill="#0F172A" font-family="ui-sans-serif, system-ui, sans-serif" font-size="18" font-weight="700">Keep review state between sessions</text>
  <rect x="938" y="434" width="86" height="26" rx="999" fill="#ECFDF5"/>
  <text x="958" y="451" fill="#047857" font-family="ui-sans-serif, system-ui, sans-serif" font-size="12" font-weight="700">unseen</text>
  <rect x="1032" y="434" width="72" height="26" rx="999" fill="#DCFCE7"/>
  <text x="1052" y="451" fill="#15803D" font-family="ui-sans-serif, system-ui, sans-serif" font-size="12" font-weight="700">seen</text>
  <rect x="1112" y="434" width="72" height="26" rx="999" fill="#FEF3C7"/>
  <text x="1132" y="451" fill="#B45309" font-family="ui-sans-serif, system-ui, sans-serif" font-size="12" font-weight="700">skip</text>
  <text x="938" y="478" fill="#64748B" font-family="ui-sans-serif, system-ui, sans-serif" font-size="14">Restore saved snapshots, filters, and dock sizing when you come back.</text>

  <rect x="892" y="520" width="264" height="116" rx="18" fill="#0F172A"/>
  <text x="918" y="560" fill="#F8FAFC" font-family="ui-sans-serif, system-ui, sans-serif" font-size="24" font-weight="700">Built for Logseq Whiteboard</text>
  <text x="918" y="592" fill="#94A3B8" font-family="ui-sans-serif, system-ui, sans-serif" font-size="15">Dedicated dock. Native drag workflow. Persistent review queue.</text>
</svg>
